# xmcd CD database file
#
# Track frame offsets:
#	150
#	32262
#	57050
#	70887
#	99255
#	123892
#	139135
#	154507
#	172470
#	207127
#	232935
#	249147
#
# Disc length: 3698 seconds
#
# Revision: 0
# Processed by: cddbd v1.5.1PL0 Copyright (c) Steve Scherf et al.
# Submitted via: CDex 1.60beta1
#
DISCID=910e700c
DTITLE=Various Artist - Jazz Memories On The Street Of Love
DYEAR=1900
DGENRE=Jazz
TTITLE0=Cannonball and Miles - Love For Sale
TTITLE1=Hank Mobley - Falling In Love With Love
TTITLE2=Ray Bryant - Misty
TTITLE3=Milt Jackson - Whisper not
TTITLE4=Duke Pearson - Like someone in love
TTITLE5=Chet Baker - I Fall In Love Too Easily
TTITLE6=Dexter Gordon - Smile
TTITLE7=Sony Clark - The breeze and I
TTITLE8=Grant Green - Lullaby of the leaves
TTITLE9=Sonny Criss - What Is This Thing Called Love
TTITLE10=Annie Ross - I feel pretty
TTITLE11=Lee Morgan - Sunrise Sunset
EXTD=
EXTT0=
EXTT1=
EXTT2=
EXTT3=
EXTT4=
EXTT5=
EXTT6=
EXTT7=
EXTT8=
EXTT9=
EXTT10=
EXTT11=
PLAYORDER=
